<svg width="617" height="617" viewBox="0 0 617 617" fill="none" xmlns="http://www.w3.org/2000/svg">
<g style="mix-blend-mode:multiply">
<path fill-rule="evenodd" clip-rule="evenodd" d="M253.357 527.435L308.5 582.579L363.643 527.435H253.357ZM218.935 527.435L308.5 617L398.065 527.435H504.689H527.435V504.689V398.065L617 308.5L527.435 218.935V112.311V89.5645H504.689H398.065L308.5 0L218.935 89.5645H112.311H89.5645V112.311V218.935L0 308.5L89.5645 398.065V504.689V527.435H112.311H218.935ZM230.61 504.689H386.39L504.689 386.39V230.61L386.39 112.311H230.61L112.311 230.61V386.39L230.61 504.689ZM112.311 420.811L196.189 504.689H112.311V420.811ZM89.5645 363.643V253.357L34.4212 308.5L89.5645 363.643ZM112.311 196.189L196.189 112.311H112.311V196.189ZM253.357 89.5645H363.643L308.5 34.4212L253.357 89.5645ZM420.811 112.311L504.689 196.189V112.311H420.811ZM527.435 253.357V363.643L582.579 308.5L527.435 253.357ZM504.689 420.811L420.811 504.689H504.689V420.811Z" fill="#F1F1F1"/>
</g>
<g style="mix-blend-mode:multiply" filter="url(#filter0_f_262:917)">
<path fill-rule="evenodd" clip-rule="evenodd" d="M281.014 395.29L303 417.276L324.986 395.29H281.014ZM267.29 395.29L303 431L338.71 395.29H381.221H390.29V386.221V343.71L426 308L390.29 272.29V229.779V220.71H381.221H338.71L303 185L267.29 220.71H224.779H215.71V229.779V272.29L180 308L215.71 343.71V386.221V395.29H224.779H267.29ZM271.945 386.221H334.055L381.221 339.055V276.945L334.055 229.779H271.945L224.779 276.945V339.055L271.945 386.221ZM224.779 352.779L258.221 386.221H224.779V352.779ZM215.71 329.986V286.014L193.724 308L215.71 329.986ZM224.779 263.221L258.221 229.779H224.779V263.221ZM281.014 220.71H324.986L303 198.724L281.014 220.71ZM347.779 229.779L381.221 263.221V229.779H347.779ZM390.29 286.014V329.986L412.276 308L390.29 286.014ZM381.221 352.779L347.779 386.221H381.221V352.779Z" fill="#F1F1F1"/>
</g>
<defs>
<filter id="filter0_f_262:917" x="166" y="171" width="274" height="274" filterUnits="userSpaceOnUse" color-interpolation-filters="sRGB">
<feFlood flood-opacity="0" result="BackgroundImageFix"/>
<feBlend mode="normal" in="SourceGraphic" in2="BackgroundImageFix" result="shape"/>
<feGaussianBlur stdDeviation="7" result="effect1_foregroundBlur_262:917"/>
</filter>
</defs>
</svg>
