<svg width="60" height="60" viewBox="0 0 60 60" fill="none" xmlns="http://www.w3.org/2000/svg">
<rect x="0.5" y="0.5" width="59" height="59" rx="4.5" stroke="#E0E0E0"/>
<path d="M36.8792 15H23.1207C18.6429 15 15 18.6429 15 23.1207V36.8795C15 41.3571 18.6429 44.9999 23.1207 44.9999H36.8795C41.3571 44.9999 44.9999 41.3571 44.9999 36.8795V23.1207C44.9999 18.6429 41.3571 15 36.8792 15V15ZM30 38.2029C25.4768 38.2029 21.7971 34.5231 21.7971 30C21.7971 25.4768 25.4768 21.7971 30 21.7971C34.5231 21.7971 38.2029 25.4768 38.2029 30C38.2029 34.5231 34.5231 38.2029 30 38.2029ZM38.399 23.7316C37.0623 23.7316 35.9751 22.6444 35.9751 21.3077C35.9751 19.9711 37.0623 18.8837 38.399 18.8837C39.7357 18.8837 40.8231 19.9711 40.8231 21.3077C40.8231 22.6444 39.7357 23.7316 38.399 23.7316Z" fill="#121212"/>
<path d="M36.8792 15H23.1207C18.6429 15 15 18.6429 15 23.1207V36.8795C15 41.3571 18.6429 44.9999 23.1207 44.9999H36.8795C41.3571 44.9999 44.9999 41.3571 44.9999 36.8795V23.1207C44.9999 18.6429 41.3571 15 36.8792 15V15ZM30 38.2029C25.4768 38.2029 21.7971 34.5231 21.7971 30C21.7971 25.4768 25.4768 21.7971 30 21.7971C34.5231 21.7971 38.2029 25.4768 38.2029 30C38.2029 34.5231 34.5231 38.2029 30 38.2029ZM38.399 23.7316C37.0623 23.7316 35.9751 22.6444 35.9751 21.3077C35.9751 19.9711 37.0623 18.8837 38.399 18.8837C39.7357 18.8837 40.8231 19.9711 40.8231 21.3077C40.8231 22.6444 39.7357 23.7316 38.399 23.7316Z" fill="url(#paint0_linear_1:3088)"/>
<path d="M30 23.5558C26.4468 23.5558 23.5558 26.4466 23.5558 30C23.5558 33.5532 26.4468 36.4442 30 36.4442C33.5534 36.4442 36.4442 33.5532 36.4442 30C36.4442 26.4466 33.5534 23.5558 30 23.5558Z" fill="#121212"/>
<path d="M30 23.5558C26.4468 23.5558 23.5558 26.4466 23.5558 30C23.5558 33.5532 26.4468 36.4442 30 36.4442C33.5534 36.4442 36.4442 33.5532 36.4442 30C36.4442 26.4466 33.5534 23.5558 30 23.5558Z" fill="url(#paint1_linear_1:3088)"/>
<path d="M38.399 20.6426C38.0323 20.6426 37.7338 20.9411 37.7338 21.3078C37.7338 21.6744 38.0323 21.9729 38.399 21.9729C38.7659 21.9729 39.0643 21.6746 39.0643 21.3078C39.0643 20.9409 38.7659 20.6426 38.399 20.6426Z" fill="#121212"/>
<path d="M38.399 20.6426C38.0323 20.6426 37.7338 20.9411 37.7338 21.3078C37.7338 21.6744 38.0323 21.9729 38.399 21.9729C38.7659 21.9729 39.0643 21.6746 39.0643 21.3078C39.0643 20.9409 38.7659 20.6426 38.399 20.6426Z" fill="url(#paint2_linear_1:3088)"/>
<defs>
<linearGradient id="paint0_linear_1:3088" x1="19.3203" y1="32.225" x2="36.4262" y2="33.4992" gradientUnits="userSpaceOnUse">
<stop stop-color="#1D0525"/>
<stop offset="1" stop-color="#420059"/>
</linearGradient>
<linearGradient id="paint1_linear_1:3088" x1="25.4119" y1="30.9559" x2="32.7608" y2="31.5033" gradientUnits="userSpaceOnUse">
<stop stop-color="#1D0525"/>
<stop offset="1" stop-color="#420059"/>
</linearGradient>
<linearGradient id="paint2_linear_1:3088" x1="37.9254" y1="21.4064" x2="38.6841" y2="21.4629" gradientUnits="userSpaceOnUse">
<stop stop-color="#1D0525"/>
<stop offset="1" stop-color="#420059"/>
</linearGradient>
</defs>
</svg>
