<svg width="434" height="434" viewBox="0 0 434 434" fill="none" xmlns="http://www.w3.org/2000/svg">
<path fill-rule="evenodd" clip-rule="evenodd" d="M178.212 371L217 409.788L255.788 371H178.212ZM154 371L217 434L280 371H355H371V355V280L434 217L371 154V79V63H355H280L217 0L154 63H79H63V79V154L0 217L63 280V355V371H79H154ZM162.212 355H271.788L355 271.788V162.212L271.788 79H162.212L79 162.212V271.788L162.212 355ZM79 296L138 355H79V296ZM63 255.788V178.212L24.212 217L63 255.788ZM79 138L138 79H79V138ZM178.212 63H255.788L217 24.212L178.212 63ZM296 79L355 138V79H296ZM371 178.212V255.788L409.788 217L371 178.212ZM355 296L296 355H355V296Z" fill="#F1F1F1"/>
</svg>
