<svg width="48" height="48" viewBox="0 0 48 48" fill="none" xmlns="http://www.w3.org/2000/svg">
<rect x="0.5" y="0.5" width="47" height="47" rx="4.5" stroke="#4D0068"/>
<path d="M29.5034 12H18.4966C14.9143 12 12 14.9143 12 18.4966V29.5036C12 33.0857 14.9143 36 18.4966 36H29.5036C33.0857 36 36 33.0857 36 29.5036V18.4966C36 14.9143 33.0857 12 29.5034 12V12ZM24 30.5623C20.3815 30.5623 17.4377 27.6185 17.4377 24C17.4377 20.3815 20.3815 17.4377 24 17.4377C27.6185 17.4377 30.5623 20.3815 30.5623 24C30.5623 27.6185 27.6185 30.5623 24 30.5623ZM30.7192 18.9853C29.6499 18.9853 28.7801 18.1155 28.7801 17.0462C28.7801 15.9769 29.6499 15.1069 30.7192 15.1069C31.7885 15.1069 32.6585 15.9769 32.6585 17.0462C32.6585 18.1155 31.7885 18.9853 30.7192 18.9853Z" fill="white"/>
<path d="M24.0001 18.8447C21.1575 18.8447 18.8447 21.1573 18.8447 24C18.8447 26.8425 21.1575 29.1553 24.0001 29.1553C26.8428 29.1553 29.1554 26.8425 29.1554 24C29.1554 21.1573 26.8428 18.8447 24.0001 18.8447Z" fill="white"/>
<path d="M30.7191 16.5141C30.4258 16.5141 30.187 16.7529 30.187 17.0462C30.187 17.3395 30.4258 17.5783 30.7191 17.5783C31.0126 17.5783 31.2514 17.3397 31.2514 17.0462C31.2514 16.7527 31.0126 16.5141 30.7191 16.5141Z" fill="white"/>
</svg>
