<svg width="60" height="60" viewBox="0 0 60 60" fill="none" xmlns="http://www.w3.org/2000/svg">
<rect x="0.5" y="0.5" width="59" height="59" rx="4.5" stroke="#E0E0E0"/>
<g clip-path="url(#clip0_1:3080)">
<path d="M26.7712 33.9763L26.275 40.9563C26.985 40.9563 27.2925 40.6513 27.6612 40.2851L30.99 37.1038L37.8875 42.1551C39.1525 42.8601 40.0437 42.4888 40.385 40.9913L44.9125 19.7763L44.9137 19.7751C45.315 17.9051 44.2375 17.1738 43.005 17.6326L16.3925 27.8213C14.5762 28.5263 14.6037 29.5388 16.0837 29.9976L22.8875 32.1138L38.6912 22.2251C39.435 21.7326 40.1112 22.0051 39.555 22.4976L26.7712 33.9763Z" fill="#121212"/>
<path d="M26.7712 33.9763L26.275 40.9563C26.985 40.9563 27.2925 40.6513 27.6612 40.2851L30.99 37.1038L37.8875 42.1551C39.1525 42.8601 40.0437 42.4888 40.385 40.9913L44.9125 19.7763L44.9137 19.7751C45.315 17.9051 44.2375 17.1738 43.005 17.6326L16.3925 27.8213C14.5762 28.5263 14.6037 29.5388 16.0837 29.9976L22.8875 32.1138L38.6912 22.2251C39.435 21.7326 40.1112 22.0051 39.555 22.4976L26.7712 33.9763Z" fill="url(#paint0_linear_1:3080)"/>
</g>
<defs>
<linearGradient id="paint0_linear_1:3080" x1="19.32" y1="31.8538" x2="36.3841" y2="33.3791" gradientUnits="userSpaceOnUse">
<stop stop-color="#1D0525"/>
<stop offset="1" stop-color="#420059"/>
</linearGradient>
<clipPath id="clip0_1:3080">
<rect width="30" height="30" fill="white" transform="translate(15 15)"/>
</clipPath>
</defs>
</svg>
