<svg width="48" height="48" viewBox="0 0 48 48" fill="none" xmlns="http://www.w3.org/2000/svg">
<rect x="0.5" y="0.5" width="47" height="47" rx="4.5" stroke="#4D0068"/>
<g clip-path="url(#clip0_140:272)">
<path d="M21.4172 27.181L21.0202 32.765C21.5882 32.765 21.8342 32.521 22.1292 32.228L24.7922 29.683L30.3102 33.724C31.3222 34.288 32.0352 33.991 32.3082 32.793L35.9302 15.821L35.9312 15.82C36.2522 14.324 35.3902 13.739 34.4042 14.106L13.1142 22.257C11.6612 22.821 11.6832 23.631 12.8672 23.998L18.3102 25.691L30.9532 17.78C31.5482 17.386 32.0892 17.604 31.6442 17.998L21.4172 27.181Z" fill="white"/>
</g>
<defs>
<clipPath id="clip0_140:272">
<rect width="24" height="24" fill="white" transform="translate(12 12)"/>
</clipPath>
</defs>
</svg>
