<svg width="48" height="48" viewBox="0 0 48 48" fill="none" xmlns="http://www.w3.org/2000/svg">
<rect x="0.5" y="0.5" width="47" height="47" rx="4.5" stroke="#4D0068"/>
<path d="M34.5152 18.0183C33.1455 18.0183 31.8818 17.5645 30.8669 16.799C29.703 15.9215 28.8668 14.6344 28.5715 13.1508C28.4983 12.7842 28.459 12.4059 28.4552 12.0183H24.5425V22.7095L24.5379 28.5656C24.5379 30.1312 23.5183 31.4587 22.105 31.9256C21.6949 32.0611 21.2519 32.1253 20.7907 32.1C20.2019 32.0676 19.6502 31.89 19.1707 31.6031C18.1502 30.9928 17.4583 29.8856 17.4396 28.619C17.41 26.6395 19.0104 25.0256 20.9885 25.0256C21.379 25.0256 21.754 25.0894 22.105 25.2051V22.283V21.2325C21.7347 21.1776 21.3579 21.149 20.9768 21.149C18.8116 21.149 16.7866 22.049 15.3391 23.6705C14.245 24.8958 13.5888 26.459 13.4875 28.0983C13.3549 30.2517 14.1429 32.2987 15.671 33.809C15.8955 34.0308 16.1313 34.2365 16.3779 34.4264C17.688 35.4347 19.2897 35.9812 20.9768 35.9812C21.3579 35.9812 21.7347 35.9531 22.105 35.8983C23.681 35.6648 25.135 34.9434 26.2825 33.809C27.6925 32.4155 28.4716 30.5653 28.48 28.5961L28.4599 19.8511C29.1325 20.37 29.868 20.7994 30.6574 21.1326C31.885 21.6506 33.1868 21.9131 34.5265 21.9126V19.0715V18.0173C34.5274 18.0183 34.5161 18.0183 34.5152 18.0183Z" fill="white"/>
</svg>
