<svg width="60" height="60" viewBox="0 0 60 60" fill="none" xmlns="http://www.w3.org/2000/svg">
<rect x="0.5" y="0.5" width="59" height="59" rx="4.5" stroke="#E0E0E0"/>
<path d="M43.1436 22.5228C41.4315 22.5228 39.8518 21.9557 38.5833 20.9988C37.1284 19.902 36.0831 18.293 35.7139 16.4385C35.6225 15.9803 35.5733 15.5074 35.5686 15.0229H30.6778V28.3869L30.672 35.707C30.672 37.6641 29.3975 39.3234 27.6309 39.907C27.1182 40.0764 26.5645 40.1566 25.988 40.125C25.252 40.0846 24.5624 39.8625 23.963 39.5039C22.6874 38.741 21.8225 37.357 21.7991 35.7738C21.7622 33.2994 23.7626 31.282 26.2352 31.282C26.7233 31.282 27.1921 31.3617 27.6309 31.5064V27.8537V26.5406C27.1681 26.4721 26.697 26.4363 26.2206 26.4363C23.5141 26.4363 20.9829 27.5613 19.1735 29.5881C17.8059 31.1197 16.9856 33.0738 16.8591 35.1228C16.6932 37.8146 17.6782 40.3734 19.5884 42.2613C19.869 42.5385 20.1638 42.7957 20.472 43.033C22.1097 44.2934 24.1118 44.9766 26.2206 44.9766C26.697 44.9766 27.1681 44.9414 27.6309 44.8728C29.6009 44.581 31.4184 43.6793 32.8528 42.2613C34.6153 40.5193 35.5891 38.2066 35.5997 35.7451L35.5745 24.8139C36.4153 25.4625 37.3347 25.9992 38.3214 26.4158C39.8559 27.0633 41.4831 27.3914 43.1577 27.3908V23.8395V22.5217C43.1589 22.5228 43.1448 22.5228 43.1436 22.5228Z" fill="#121212"/>
<path d="M43.1436 22.5228C41.4315 22.5228 39.8518 21.9557 38.5833 20.9988C37.1284 19.902 36.0831 18.293 35.7139 16.4385C35.6225 15.9803 35.5733 15.5074 35.5686 15.0229H30.6778V28.3869L30.672 35.707C30.672 37.6641 29.3975 39.3234 27.6309 39.907C27.1182 40.0764 26.5645 40.1566 25.988 40.125C25.252 40.0846 24.5624 39.8625 23.963 39.5039C22.6874 38.741 21.8225 37.357 21.7991 35.7738C21.7622 33.2994 23.7626 31.282 26.2352 31.282C26.7233 31.282 27.1921 31.3617 27.6309 31.5064V27.8537V26.5406C27.1681 26.4721 26.697 26.4363 26.2206 26.4363C23.5141 26.4363 20.9829 27.5613 19.1735 29.5881C17.8059 31.1197 16.9856 33.0738 16.8591 35.1228C16.6932 37.8146 17.6782 40.3734 19.5884 42.2613C19.869 42.5385 20.1638 42.7957 20.472 43.033C22.1097 44.2934 24.1118 44.9766 26.2206 44.9766C26.697 44.9766 27.1681 44.9414 27.6309 44.8728C29.6009 44.581 31.4184 43.6793 32.8528 42.2613C34.6153 40.5193 35.5891 38.2066 35.5997 35.7451L35.5745 24.8139C36.4153 25.4625 37.3347 25.9992 38.3214 26.4158C39.8559 27.0633 41.4831 27.3914 43.1577 27.3908V23.8395V22.5217C43.1589 22.5228 43.1448 22.5228 43.1436 22.5228Z" fill="url(#paint0_linear_1:3075)"/>
<defs>
<linearGradient id="paint0_linear_1:3075" x1="20.6309" y1="32.2213" x2="35.6556" y2="33.2046" gradientUnits="userSpaceOnUse">
<stop stop-color="#1D0525"/>
<stop offset="1" stop-color="#420059"/>
</linearGradient>
</defs>
</svg>
