<svg width="24" height="24" viewBox="0 0 24 24" fill="none" xmlns="http://www.w3.org/2000/svg">
<path d="M15.07 1.00977H9.07001V3.00977H15.07V1.00977ZM11.07 14.0098H13.07V8.00977H11.07V14.0098ZM19.1 7.38977L20.52 5.96977C20.09 5.45977 19.62 4.97977 19.11 4.55977L17.69 5.97977C16.14 4.73977 14.19 3.99977 12.07 3.99977C7.10001 3.99977 3.07001 8.02977 3.07001 12.9998C3.07001 17.9698 7.09001 21.9998 12.07 21.9998C17.05 21.9998 21.07 17.9698 21.07 12.9998C21.07 10.8898 20.33 8.93977 19.1 7.38977ZM12.07 20.0098C8.20001 20.0098 5.07001 16.8798 5.07001 13.0098C5.07001 9.13977 8.20001 6.00977 12.07 6.00977C15.94 6.00977 19.07 9.13977 19.07 13.0098C19.07 16.8798 15.94 20.0098 12.07 20.0098Z" fill="#DBDBDD"/>
</svg>
