<svg width="60" height="60" viewBox="0 0 60 60" fill="none" xmlns="http://www.w3.org/2000/svg">
<rect x="0.5" y="0.5" width="59" height="59" rx="4.5" stroke="#E0E0E0"/>
<path d="M43.4683 22.9704C43.1442 21.7655 42.1942 20.8157 40.9895 20.4913C38.7887 19.8891 29.985 19.8891 29.985 19.8891C29.985 19.8891 21.1817 19.8891 18.9808 20.4685C17.7993 20.7926 16.8261 21.7657 16.502 22.9704C15.9229 25.1711 15.9229 29.7351 15.9229 29.7351C15.9229 29.7351 15.9229 34.3221 16.502 36.4998C16.8265 37.7045 17.7761 38.6543 18.981 38.9787C21.2049 39.5811 29.9853 39.5811 29.9853 39.5811C29.9853 39.5811 38.7887 39.5811 40.9895 39.0017C42.1944 38.6774 43.1442 37.7276 43.4687 36.5229C44.0477 34.3221 44.0477 29.7583 44.0477 29.7583C44.0477 29.7583 44.0709 25.1711 43.4683 22.9704ZM27.1821 33.9514V25.5187L34.5028 29.7351L27.1821 33.9514Z" fill="#121212"/>
<path d="M43.4683 22.9704C43.1442 21.7655 42.1942 20.8157 40.9895 20.4913C38.7887 19.8891 29.985 19.8891 29.985 19.8891C29.985 19.8891 21.1817 19.8891 18.9808 20.4685C17.7993 20.7926 16.8261 21.7657 16.502 22.9704C15.9229 25.1711 15.9229 29.7351 15.9229 29.7351C15.9229 29.7351 15.9229 34.3221 16.502 36.4998C16.8265 37.7045 17.7761 38.6543 18.981 38.9787C21.2049 39.5811 29.9853 39.5811 29.9853 39.5811C29.9853 39.5811 38.7887 39.5811 40.9895 39.0017C42.1944 38.6774 43.1442 37.7276 43.4687 36.5229C44.0477 34.3221 44.0477 29.7583 44.0477 29.7583C44.0477 29.7583 44.0709 25.1711 43.4683 22.9704ZM27.1821 33.9514V25.5187L34.5028 29.7351L27.1821 33.9514Z" fill="url(#paint0_linear_1:3084)"/>
<defs>
<linearGradient id="paint0_linear_1:3084" x1="19.9731" y1="31.1956" x2="35.9184" y2="32.892" gradientUnits="userSpaceOnUse">
<stop stop-color="#1D0525"/>
<stop offset="1" stop-color="#420059"/>
</linearGradient>
</defs>
</svg>
